REM DIRINDEX 1\2\6,1\2\7,1\2\8,1\2\9,1\3\10,1\3\11,1\4\12,1\4\13,1\4\14,1\5\15,1\5\16,1\5\17
REM DIRNAME folder01,folder02,folder03,folder04,folder05,folder06,folder07,folder08,folder09,folder10,folder11,folder12,folder13,folder14,folder15,folder16,folder17
TITLE ""
FILE "1900_2_sec19_1801_1817.mp3" MP3
  TRACK 01 AUDIO
    TITLE "0:"
    INDEX 01 00:00:00
  TRACK 02 AUDIO
    TITLE "12:cjc020_5761"
    INDEX 01 00:03:23
  TRACK 03 AUDIO
    TITLE "0:"
    INDEX 01 00:05:07
  TRACK 04 AUDIO
    TITLE "12:cjc020_5762"
    INDEX 01 00:05:50
  TRACK 05 AUDIO
    TITLE "0:"
    INDEX 01 00:06:73
  TRACK 06 AUDIO
    TITLE "13:cjc020_5763"
    INDEX 01 00:07:74
  TRACK 07 AUDIO
    TITLE "0:"
    INDEX 01 00:09:08
  TRACK 08 AUDIO
    TITLE "14:cjc020_5764"
    INDEX 01 00:09:14
  TRACK 09 AUDIO
    TITLE "0:"
    INDEX 01 00:10:49
  TRACK 10 AUDIO
    TITLE "13:cjc020_5765"
    INDEX 01 00:11:31
  TRACK 11 AUDIO
    TITLE "0:"
    INDEX 01 00:12:46
  TRACK 12 AUDIO
    TITLE "14:cjc020_5766"
    INDEX 01 00:12:48
  TRACK 13 AUDIO
    TITLE "0:"
    INDEX 01 00:15:19
  TRACK 14 AUDIO
    TITLE "13:cjc020_5767"
    INDEX 01 00:15:74
  TRACK 15 AUDIO
    TITLE "0:"
    INDEX 01 00:17:08
  TRACK 16 AUDIO
    TITLE "14:cjc020_5768"
    INDEX 01 00:17:10
  TRACK 17 AUDIO
    TITLE "0:"
    INDEX 01 00:18:31
  TRACK 18 AUDIO
    TITLE "13:cjc020_5769"
    INDEX 01 00:19:13
  TRACK 19 AUDIO
    TITLE "0:"
    INDEX 01 00:20:28
  TRACK 20 AUDIO
    TITLE "14:cjc020_5770"
    INDEX 01 00:20:32
  TRACK 21 AUDIO
    TITLE "0:"
    INDEX 01 00:25:09
  TRACK 22 AUDIO
    TITLE "13:cjc020_5771"
    INDEX 01 00:25:64
  TRACK 23 AUDIO
    TITLE "0:"
    INDEX 01 00:27:06
  TRACK 24 AUDIO
    TITLE "14:cjc020_5772"
    INDEX 01 00:27:10
  TRACK 25 AUDIO
    TITLE "0:"
    INDEX 01 00:29:52
  TRACK 26 AUDIO
    TITLE "13:cjc020_5773"
    INDEX 01 00:30:32
  TRACK 27 AUDIO
    TITLE "0:"
    INDEX 01 00:31:41
  TRACK 28 AUDIO
    TITLE "14:cjc020_5774"
    INDEX 01 00:31:43
  TRACK 29 AUDIO
    TITLE "0:"
    INDEX 01 00:33:62
  TRACK 30 AUDIO
    TITLE "13:cjc020_5775"
    INDEX 01 00:34:43
  TRACK 31 AUDIO
    TITLE "0:"
    INDEX 01 00:35:51
  TRACK 32 AUDIO
    TITLE "14:cjc020_5776"
    INDEX 01 00:35:53
  TRACK 33 AUDIO
    TITLE "0:"
    INDEX 01 00:40:44
  TRACK 34 AUDIO
    TITLE "13:cjc020_5777"
    INDEX 01 00:41:20
  TRACK 35 AUDIO
    TITLE "0:"
    INDEX 01 00:42:18
  TRACK 36 AUDIO
    TITLE "14:cjc020_5778"
    INDEX 01 00:42:23
  TRACK 37 AUDIO
    TITLE "0:"
    INDEX 01 00:46:17
  TRACK 38 AUDIO
    TITLE "13:cjc020_5779"
    INDEX 01 00:46:72
  TRACK 39 AUDIO
    TITLE "0:"
    INDEX 01 00:48:00
  TRACK 40 AUDIO
    TITLE "14:cjc020_5780"
    INDEX 01 00:48:04
  TRACK 41 AUDIO
    TITLE "0:"
    INDEX 01 00:49:35
  TRACK 42 AUDIO
    TITLE "13:cjc020_5781"
    INDEX 01 00:50:13
  TRACK 43 AUDIO
    TITLE "0:"
    INDEX 01 00:51:24
  TRACK 44 AUDIO
    TITLE "14:cjc020_5782"
    INDEX 01 00:51:28
  TRACK 45 AUDIO
    TITLE "0:"
    INDEX 01 00:54:62
  TRACK 46 AUDIO
    TITLE "13:cjc020_5783"
    INDEX 01 00:55:38
  TRACK 47 AUDIO
    TITLE "0:"
    INDEX 01 00:56:63
  TRACK 48 AUDIO
    TITLE "14:cjc020_5784"
    INDEX 01 00:56:69
  TRACK 49 AUDIO
    TITLE "0:"
    INDEX 01 00:59:53
  TRACK 50 AUDIO
    TITLE "13:cjc020_5785"
    INDEX 01 01:00:33
  TRACK 51 AUDIO
    TITLE "0:"
    INDEX 01 01:01:52
  TRACK 52 AUDIO
    TITLE "14:cjc020_5786"
    INDEX 01 01:01:54
  TRACK 53 AUDIO
    TITLE "0:"
    INDEX 01 01:04:35
  TRACK 54 AUDIO
    TITLE "13:cjc020_5787"
    INDEX 01 01:05:15
  TRACK 55 AUDIO
    TITLE "0:"
    INDEX 01 01:06:30
  TRACK 56 AUDIO
    TITLE "14:cjc020_5788"
    INDEX 01 01:06:34
  TRACK 57 AUDIO
    TITLE "0:"
    INDEX 01 01:09:03
  TRACK 58 AUDIO
    TITLE "13:cjc020_5789"
    INDEX 01 01:09:59
  TRACK 59 AUDIO
    TITLE "0:"
    INDEX 01 01:10:73
  TRACK 60 AUDIO
    TITLE "14:cjc020_5790"
    INDEX 01 01:11:02
  TRACK 61 AUDIO
    TITLE "0:"
    INDEX 01 01:13:06
  TRACK 62 AUDIO
    TITLE "13:cjc020_5791"
    INDEX 01 01:13:61
  TRACK 63 AUDIO
    TITLE "0:"
    INDEX 01 01:15:01
  TRACK 64 AUDIO
    TITLE "14:cjc020_5792"
    INDEX 01 01:15:03
  TRACK 65 AUDIO
    TITLE "0:"
    INDEX 01 01:16:22
  TRACK 66 AUDIO
    TITLE "13:cjc020_5793"
    INDEX 01 01:17:02
  TRACK 67 AUDIO
    TITLE "0:"
    INDEX 01 01:18:11
  TRACK 68 AUDIO
    TITLE "14:cjc020_5794"
    INDEX 01 01:18:13
  TRACK 69 AUDIO
    TITLE "0:"
    INDEX 01 01:22:52
  TRACK 70 AUDIO
    TITLE "13:cjc020_5795"
    INDEX 01 01:23:30
  TRACK 71 AUDIO
    TITLE "0:"
    INDEX 01 01:24:43
  TRACK 72 AUDIO
    TITLE "14:cjc020_5796"
    INDEX 01 01:24:45
  TRACK 73 AUDIO
    TITLE "0:"
    INDEX 01 01:26:72
